<svg xmlns="http://www.w3.org/2000/svg" xmlns:xlink="http://www.w3.org/1999/xlink" xmlns:lucid="lucid" width="602" height="359"><g transform="translate(-339 -559)" lucid:page-tab-id="0_0"><path d="M340 572a12 12 0 0 1 12-12h176a12 12 0 0 1 12 12v53a12 12 0 0 1-12 12H352a12 12 0 0 1-12-12z" fill="#fff"/><path d="M340 600h200v25a12 12 0 0 1-12 12H352a12 12 0 0 1-12-12z" fill="#fff"/><path d="M341 600h198-198zM340 572a12 12 0 0 1 12-12h176a12 12 0 0 1 12 12v53a12 12 0 0 1-12 12H352a12 12 0 0 1-12-12z" stroke="#000" stroke-width="2" fill="none"/><use xlink:href="#a" transform="matrix(1,0,0,1,350,560) translate(78.88888888888889 24.444444444444443)"/><use xlink:href="#b" transform="matrix(1,0,0,1,345,602.5) translate(0 20.444444444444443)"/><path d="M340 732a12 12 0 0 1 12-12h176a12 12 0 0 1 12 12v90a12 12 0 0 1-12 12H352a12 12 0 0 1-12-12z" fill="#fff"/><path d="M340 760h200v38H340z" fill="#fff"/><path d="M340 797h200v25a12 12 0 0 1-12 12H352a12 12 0 0 1-12-12z" fill="#fff"/><path d="M341 760h198-198zM340 732a12 12 0 0 1 12-12h176a12 12 0 0 1 12 12v90a12 12 0 0 1-12 12H352a12 12 0 0 1-12-12z" stroke="#000" stroke-width="2" fill="none"/><use xlink:href="#c" transform="matrix(1,0,0,1,350,720) translate(67.77777777777777 24.444444444444443)"/><use xlink:href="#d" transform="matrix(1,0,0,1,350,720) translate(90 24.444444444444443)"/><use xlink:href="#e" transform="matrix(1,0,0,1,345,762.5) translate(0 20.444444444444443)"/><use xlink:href="#f" transform="matrix(1,0,0,1,345,762.5) translate(22.22222222222222 20.444444444444443)"/><use xlink:href="#g" transform="matrix(1,0,0,1,345,762.5) translate(44.44444444444444 20.444444444444443)"/><use xlink:href="#h" transform="matrix(1,0,0,1,345,762.5) translate(66.66666666666666 20.444444444444443)"/><use xlink:href="#e" transform="matrix(1,0,0,1,345,799.5) translate(0 20.444444444444443)"/><use xlink:href="#f" transform="matrix(1,0,0,1,345,799.5) translate(22.22222222222222 20.444444444444443)"/><use xlink:href="#i" transform="matrix(1,0,0,1,345,799.5) translate(44.44444444444444 20.444444444444443)"/><use xlink:href="#j" transform="matrix(1,0,0,1,345,799.5) translate(66.66666666666666 20.444444444444443)"/><use xlink:href="#k" transform="matrix(1,0,0,1,345,799.5) translate(88.88888888888889 20.444444444444443)"/><path d="M740 572a12 12 0 0 1 12-12h176a12 12 0 0 1 12 12v53a12 12 0 0 1-12 12H752a12 12 0 0 1-12-12z" fill="#fff"/><path d="M740 600h200v25a12 12 0 0 1-12 12H752a12 12 0 0 1-12-12z" fill="#fff"/><path d="M741 600h198-198zM740 572a12 12 0 0 1 12-12h176a12 12 0 0 1 12 12v53a12 12 0 0 1-12 12H752a12 12 0 0 1-12-12z" stroke="#000" stroke-width="2" fill="none"/><use xlink:href="#l" transform="matrix(1,0,0,1,750,560) translate(59.44444444444444 24.444444444444443)"/><use xlink:href="#m" transform="matrix(1,0,0,1,750,560) translate(81.66666666666666 24.444444444444443)"/><use xlink:href="#n" transform="matrix(1,0,0,1,750,560) translate(109.44444444444444 24.444444444444443)"/><use xlink:href="#l" transform="matrix(1,0,0,1,745,602.5) translate(0 20.444444444444443)"/><use xlink:href="#o" transform="matrix(1,0,0,1,745,602.5) translate(22.22222222222222 20.444444444444443)"/><use xlink:href="#p" transform="matrix(1,0,0,1,745,602.5) translate(44.44444444444444 20.444444444444443)"/><use xlink:href="#q" transform="matrix(1,0,0,1,745,602.5) translate(66.66666666666666 20.444444444444443)"/><path d="M740 712a12 12 0 0 1 12-12h176a12 12 0 0 1 12 12v53a12 12 0 0 1-12 12H752a12 12 0 0 1-12-12z" fill="#fff"/><path d="M740 740h200v25a12 12 0 0 1-12 12H752a12 12 0 0 1-12-12z" fill="#fff"/><path d="M741 740h198-198zM740 712a12 12 0 0 1 12-12h176a12 12 0 0 1 12 12v53a12 12 0 0 1-12 12H752a12 12 0 0 1-12-12z" stroke="#000" stroke-width="2" fill="none"/><use xlink:href="#l" transform="matrix(1,0,0,1,750,700) translate(59.44444444444444 24.444444444444443)"/><use xlink:href="#m" transform="matrix(1,0,0,1,750,700) translate(81.66666666666666 24.444444444444443)"/><use xlink:href="#r" transform="matrix(1,0,0,1,750,700) translate(109.44444444444444 24.444444444444443)"/><use xlink:href="#l" transform="matrix(1,0,0,1,745,742.5) translate(0 20.444444444444443)"/><use xlink:href="#o" transform="matrix(1,0,0,1,745,742.5) translate(22.22222222222222 20.444444444444443)"/><use xlink:href="#p" transform="matrix(1,0,0,1,745,742.5) translate(44.44444444444444 20.444444444444443)"/><use xlink:href="#q" transform="matrix(1,0,0,1,745,742.5) translate(66.66666666666666 20.444444444444443)"/><path d="M740 852a12 12 0 0 1 12-12h176a12 12 0 0 1 12 12v53a12 12 0 0 1-12 12H752a12 12 0 0 1-12-12z" fill="#fff"/><path d="M740 880h200v25a12 12 0 0 1-12 12H752a12 12 0 0 1-12-12z" fill="#fff"/><path d="M741 880h198-198zM740 852a12 12 0 0 1 12-12h176a12 12 0 0 1 12 12v53a12 12 0 0 1-12 12H752a12 12 0 0 1-12-12z" stroke="#000" stroke-width="2" fill="none"/><use xlink:href="#l" transform="matrix(1,0,0,1,750,840) translate(59.44444444444444 24.444444444444443)"/><use xlink:href="#m" transform="matrix(1,0,0,1,750,840) translate(81.66666666666666 24.444444444444443)"/><use xlink:href="#s" transform="matrix(1,0,0,1,750,840) translate(109.44444444444444 24.444444444444443)"/><use xlink:href="#l" transform="matrix(1,0,0,1,745,882.5) translate(0 20.444444444444443)"/><use xlink:href="#o" transform="matrix(1,0,0,1,745,882.5) translate(22.22222222222222 20.444444444444443)"/><use xlink:href="#p" transform="matrix(1,0,0,1,745,882.5) translate(44.44444444444444 20.444444444444443)"/><use xlink:href="#q" transform="matrix(1,0,0,1,745,882.5) translate(66.66666666666666 20.444444444444443)"/><path d="M440 638.5v66" stroke="#3a414a" fill="none"/><path d="M440.48 638.5h-.96v-.5h.96z" stroke="#3a414a" stroke-width=".05" fill="#3a414a"/><path d="M440 718l-7.5-13h15z" stroke="#3a414a" fill="#3a414a"/><path d="M615.22 679.48H467.35l-.88.06-.84.2-.8.34-.74.45-.67.56-.56.65-.46.74-.32.8-.2.84-.07.88v19.5h-.94v-19.54l.08-1 .23-.98.4-.94.52-.87.65-.78.78-.66.86-.53.93-.4 1-.23 1-.08h147.9zm123.28-99h-33.48l-.88.06-.85.2-.8.34-.75.45-.66.56-.57.65-.45.74-.33.8-.2.84-.07.88v87l-.08 1-.24.98-.4.94-.52.87-.66.78-.77.66-.86.53-.94.4-1 .23-.98.08h-57.1v-.96h57.06l.88-.06.85-.2.8-.34.75-.45.66-.56.57-.65.45-.74.33-.8.2-.84.07-.88v-87l.08-1 .24-.98.4-.94.52-.87.66-.78.77-.66.86-.53.94-.4 1-.23.98-.08h33.52z" stroke="#3a414a" stroke-width=".05" fill="#3a414a"/><path d="M739 580.48h-.5v-.96h.5z" fill="#3a414a"/><path stroke="#3a414a" stroke-width=".05" fill="#3a414a"/><path d="M461.33 718l-7.5-13h15z" fill="#3a414a"/><path d="M461.33 718.95L453 704.53h16.66zm-6.67-13.47l6.67 11.57L468 705.5zM694 678.6l1 .24.94.4.87.52.78.66.66.77.53.86.4.94.23 1 .08.98v29l.06.88.2.85.34.8.45.75.56.66.65.57.74.45.8.33.84.2.88.07h33.48v.96h-33.52l-1-.08-.98-.24-.94-.4-.87-.52-.78-.66-.66-.77-.53-.86-.4-.94-.23-1-.08-.98v-29l-.06-.88-.2-.85-.34-.8-.45-.75-.56-.66-.65-.57-.74-.45-.8-.33-.84-.2-.88-.07H635.9v-.96h57.12zm-78.78.88H467.35l-.88.06-.84.2-.8.34-.74.45-.67.56-.56.65-.46.74-.32.8-.2.84-.07.88v19.5h-.94v-19.54l.08-1 .23-.98.4-.94.52-.87.65-.78.78-.66.86-.53.93-.4 1-.23 1-.08h147.9z" stroke="#3a414a" stroke-width=".05" fill="#3a414a"/><path d="M739 720.48h-.5v-.96h.5z" fill="#3a414a"/><path stroke="#3a414a" stroke-width=".05" fill="#3a414a"/><path d="M461.33 718l-7.5-13h15z" fill="#3a414a"/><path d="M461.33 718.95L453 704.53h16.66zm-6.67-13.47l6.67 11.57L468 705.5zM694 678.6l1 .24.94.4.87.52.78.66.66.77.53.86.4.94.23 1 .08.98v169l.06.88.2.85.34.8.45.75.56.66.65.57.74.45.8.33.84.2.88.07h33.48v.96h-33.52l-1-.08-.98-.24-.94-.4-.87-.52-.78-.66-.66-.77-.53-.86-.4-.94-.23-1-.08-.98v-169l-.06-.88-.2-.85-.34-.8-.45-.75-.56-.66-.65-.57-.74-.45-.8-.33-.84-.2-.88-.07H635.9v-.96h57.12zm-78.78.88H467.35l-.88.06-.84.2-.8.34-.74.45-.67.56-.56.65-.46.74-.32.8-.2.84-.07.88v19.5h-.94v-19.54l.08-1 .23-.98.4-.94.52-.87.65-.78.78-.66.86-.53.93-.4 1-.23 1-.08h147.9z" stroke="#3a414a" stroke-width=".05" fill="#3a414a"/><path d="M739 860.48h-.5v-.96h.5z" fill="#3a414a"/><path stroke="#3a414a" stroke-width=".05" fill="#3a414a"/><path d="M461.33 718l-7.5-13h15z" fill="#3a414a"/><path d="M461.33 718.95L453 704.53h16.66zm-6.67-13.47l6.67 11.57L468 705.5z" stroke="#3a414a" stroke-width=".05" fill="#3a414a"/><g><use xlink:href="#t" transform="matrix(1,0,0,1,615.2197362322506,668.3333333333334) translate(0 14.222222222222223)"/></g><defs><path d="M77-239c22 17 28 35 43 47 10 1 14-17 5-24-5-5-20-13-45-25zm132 48c24-8 42-22 62-34 7 0 6-6 0-8-5-3-11-8-17-14-11 21-30 41-48 52zm-26 9c2-24-5-59 6-72-3-8-23-4-28-8 6 16 3 55 4 80H29l5 9h131l1 77c5-3 14-3 17-9v-68h132c10 0 10-7 2-11-9-4-17-11-22-17l-18 19h-94zm-57 17c-30 42-47 46-103 71l2 2c49-15 86-31 112-50 3-1 19-4 6-10-5-2-11-7-17-13zm72 7l-1 5c40 14 70 30 91 48 5 8 20 11 20-3-19-27-55-30-110-50zM21 54c82-18 120-37 151-96h143c9 0 11-9 2-11-9-5-17-12-22-18l-18 19H176c-2-14 23-29 6-33-7-2-15-4-23-8 3 14 2 30-3 41H29l5 10h119C128 12 91 29 18 50zm166-82l-3 4c46 20 82 42 106 68 5 10 21 13 22-3-21-36-63-43-125-69" id="u"/><use transform="matrix(0.06172839506172839,0,0,0.06172839506172839,0,0)" xlink:href="#u" id="a"/><path d="M169-68c0 44-28 66-70 71v24H85V4C60 2 34-2 15-9v-56h12c0 36 21 53 58 54v-99c-32-13-67-22-66-68 1-41 29-55 66-60v-23h14v23c17 0 41 3 54 7v49h-11c-1-27-16-41-43-42v84c36 12 70 25 70 72zM99-12c45 1 53-71 16-86-5-3-10-5-16-7v93zM85-223c-41 0-49 57-15 71 4 2 10 5 15 7v-78" id="v"/><path d="M47-200c-23 0-25-39 0-38 13 0 18 7 20 19-1 11-8 19-20 19zM65-12l28 4v8H8v-8l28-4v-141l-24-4v-8h53v153" id="w"/><path d="M125-118c4-37-41-34-68-26v132l23 4v8H8C5-13 21-9 28-12v-141c-7-3-23 1-20-12h47l2 13c31-23 98-29 98 31v109c7 3 23-1 20 12h-72v-8l22-4v-106" id="x"/><path d="M103-236c-39-15-35 32-34 71h44v15H69v136l35 6v8H15v-8l25-6v-136H11v-9l29-7c-6-59 23-100 80-84v36c-15 2-12-14-17-22" id="y"/><g id="b"><use transform="matrix(0.06172839506172839,0,0,0.06172839506172839,0,0)" xlink:href="#v"/><use transform="matrix(0.06172839506172839,0,0,0.06172839506172839,11.11111111111111,0)" xlink:href="#w"/><use transform="matrix(0.06172839506172839,0,0,0.06172839506172839,17.28395061728395,0)" xlink:href="#x"/><use transform="matrix(0.06172839506172839,0,0,0.06172839506172839,28.39506172839506,0)" xlink:href="#y"/></g><path d="M57 54c10 8 28-11 28-28V-89c15-5 32-12 52-20l-2-3c-19 4-35 7-50 10v-75h50c7 1 8-8 2-10-8-3-13-9-17-14-8 8-15 18-35 15 2-23-5-57 7-66-4-6-18-4-26-9 5 18 2 51 3 75H18l5 9h46v78l-55 6c5 6 10 21 16 28 3-10 23-13 39-18V26c-4 11-30 5-40 2v4c15 4 24 11 28 22zm170-269c-1-18 1-31 6-40-4-5-18-4-26-8 4 11 3 32 3 48h-85l5 9h193c10 0 10-7 2-11-9-4-15-11-20-17l-17 19h-61zm26 79c15-11 29-37 45-56-5-4-15-5-22-11-7 28-17 48-32 67h-49c10-28-20-44-41-56 18 20 17 31 29 56h-73l5 10h80l-23 44h-72l6 10h60L129-2c17 9 27-13 32-25 21 6 41 13 57 20-29 32-71 45-121 57l2 4c55-5 102-23 133-53 33 15 58 41 80 52 13-7 5-26-8-32-11-8-37-20-61-31 13-15 24-35 33-62h55c11 0 10-8 2-12-10-5-18-12-23-19l-18 21H189l22-44h117c9 1 11-8 3-11-9-5-16-12-21-18l-16 19h-41zM227-16c-18-6-39-11-64-16l21-40h72c-8 23-17 42-29 56" id="z"/><use transform="matrix(0.06172839506172839,0,0,0.06172839506172839,0,0)" xlink:href="#z" id="c"/><path d="M302-197c0-9 21-15 5-23-5-3-11-7-17-13l-11 12H75l-22-11c14 80-2 190 7 275 5-2 13-3 16-7V5h208c-2 18 0 40 18 23v-225zM76-5v-206h208V-5H76" id="A"/><use transform="matrix(0.06172839506172839,0,0,0.06172839506172839,0,0)" xlink:href="#A" id="d"/><path d="M114-230c-25 73-43 99-92 144l1 4c47-24 81-71 105-122 4-6 22-9 7-16-6-2-13-5-21-10zM334-98c-64-31-92-68-121-147h-4c18 75 47 126 97 162 8-7 18-11 28-11v-4zM279 43c7 0 10-7 9-18-7-41-37-62-72-93l-2 1c20 25 30 36 39 58C193 3 135 10 81 12c29-35 58-80 88-136 7-4 16-8 3-13-7-2-15-5-22-10-11 44-36 98-77 160-11 0-23 0-30-2 5 7 6 22 10 32 49-24 141-23 202-47 8 11 8 42 24 47" id="B"/><use transform="matrix(0.06172839506172839,0,0,0.06172839506172839,0,0)" xlink:href="#B" id="e"/><path d="M298-210c0-7 18-13 8-19-5-3-10-8-15-14l-12 11H81l-23-13c4 15 5 45 5 93C62-38 58-14 21 50l2 1C54 11 69-12 77-67h89V49c3 5 16-1 17-6V-67h99v80c-1 25-24 9-46 9v4c15 6 25 15 30 28 10-2 36-17 32-33v-231zM78-77c2-18 3-39 3-65h85v65H78zm105-65h99v65h-99v-65zM81-152v-70h85v70H81zm102-70h99v70h-99v-70" id="C"/><use transform="matrix(0.06172839506172839,0,0,0.06172839506172839,0,0)" xlink:href="#C" id="f"/><path d="M183-195c-1-21 0-41 6-53-7-5-21-5-30-10 7 14 3 42 4 63H19l6 10h108C126-62 99-6 19 41l2 5c71-33 103-77 122-155h107C239-40 230 2 221 16c-10 15-23 8-47 6l-1 3c14 7 22 16 27 28 61-26 45-68 66-149 2-4 27-10 11-16-7-5-12-11-16-18l-14 11H144c3-18 6-40 8-66h176c8-1 8-11-1-13-7-4-14-11-22-20l-21 23H183" id="D"/><use transform="matrix(0.06172839506172839,0,0,0.06172839506172839,0,0)" xlink:href="#D" id="g"/><path d="M48-243c20 16 27 32 38 46 12 0 13-21 4-28-6-7-19-14-39-22zm-26 83c24 14 31 29 45 42 12 0 13-19 3-26-8-5-22-13-45-21zM70 50c23-8-2-46 1-65 9-56 31-108 44-160l-3-2C91-128 74-86 60-50c-6 16-13 15-28 17v5c30 1 23 34 23 60 0 11 5 17 15 18zm243-9c9 1 10-6 10-16-8-36-41-61-77-84 19 20 30 33 38 48C225 0 180 6 141 6c28-30 51-66 69-106h110c11 0 10-7 2-11-9-4-16-12-21-18l-18 20h-62v-76h79c9 0 11-9 2-11-9-5-15-12-20-18l-17 19h-44c0-21-1-43 7-53-5-5-18-4-26-8 5 15 2 41 3 61h-79l6 10h73v76H104l6 9h77c-11 35-29 71-53 106-8 0-17-2-28-3 7 4 9 49 24 32 2-5 14-10 35-12 30-4 71-13 122-28 8 10 10 40 26 46" id="E"/><use transform="matrix(0.06172839506172839,0,0,0.06172839506172839,0,0)" xlink:href="#E" id="h"/><path d="M99-129c11-26 30-42 43-72h174c11 0 10-8 2-12-9-4-16-11-21-17l-18 19H147c6-12 11-28 22-36-6-5-20-8-29-15-3 17-8 34-14 51H30l6 10h87c-8 18-17 36-28 53-8-1-13-3-18-4 2 5 4 14 4 25-16 22-36 43-59 65l3 3c19-14 37-31 56-52l1 165c6-3 15-3 17-10v-173zm133 24c21-7 31-27 58-31 11-1 13-8 5-13-6-4-12-11-18-21l-13 12H140l6 10h120c-14 17-28 31-42 42-6-1-11-3-18-5 3 10 3 30 3 46h-99l5 9h94v74c-2 12-32 6-44 6v4c17 4 24 13 30 25 13-2 32-16 32-35v-74h96c9 0 11-9 2-11-9-5-15-12-20-18l-17 20h-61c-1-17 0-32 8-38 0-1-1-2-3-2" id="F"/><use transform="matrix(0.06172839506172839,0,0,0.06172839506172839,0,0)" xlink:href="#F" id="i"/><path d="M18-20c6 4 14 41 23 23 26-12 55-18 95-36v84c2 6 16 0 17-5v-273c14-2 41 6 45-6-6-8-21-14-25-22l-17 18H17l5 10h26v204c-11 1-21 2-30 3zm47-5v-71h71v58c-29 6-52 10-71 13zm0-80v-57h71v57H65zm0-66v-56h71v56H65zm94 225c37-16 65-34 86-61 15 24 34 42 56 53 10-11 19-16 33-11v-3c-35-13-59-29-77-54 29-44 39-76 55-151 5-2 20-7 7-13-4-4-9-9-13-17l-14 14H165c2 12 19 9 33 9 5 64 15 116 40 162-18 26-39 42-80 69zm42-234h93c-9 69-21 102-45 146-25-42-35-75-48-146" id="G"/><use transform="matrix(0.06172839506172839,0,0,0.06172839506172839,0,0)" xlink:href="#G" id="j"/><path d="M151-215c1-7 22-11 6-19-4-3-9-7-14-13-15 18-73 15-95 2 8 27 2 65 4 98 7 6 21-1 17-16h66c-2 12 5 12 13 7 8-13 1-40 3-59zm-82 42v-53h66v53H69zm226 18c11-20-8-67 14-72-3-8-15-11-21-20l-12 11c-30-1-68 5-85-9 8 27 2 64 4 97 6 6 21-1 17-15h70c1 4-2 12 2 12zm-83-18v-53h70v53h-70zm-10 68c18 25 35 42 65 54-23 4-64 5-80-8 8 31 2 73 4 110 8 7 19-3 16-18h62c1 5-2 15 3 16 5-2 12-4 14-8v-69c2-7 15-14 23-10 4-9 15-10 21-16-50-3-93-20-122-51h108c9 0 10-10 1-11-8-5-15-11-19-17l-16 18H158c11-10 11-18 26-27 8-10-14-10-19-17-9 17-19 32-28 44H23l6 10h100C99-73 74-57 18-33l1 3c16-6 31-11 44-16 6 27-2 72 4 100 10-2 17-7 14-21h58c1 4-2 13 2 14 4-2 12-3 14-7v-68c1-7 24-13 6-19-4-3-9-7-14-13-9 16-51 13-72 8 37-17 48-24 75-53h52zm5 129v-63h62v63h-62zM81 24v-63h58v63H81" id="H"/><use transform="matrix(0.06172839506172839,0,0,0.06172839506172839,0,0)" xlink:href="#H" id="k"/><path d="M151-256c18 14 23 31 33 44 11 0 14-21 4-28-5-6-16-14-34-21zM33-156c16-3 16-20 19-43h240c-7 16-13 30-19 39 17 3 21-31 46-31 10-1 10-10 3-14s-13-9-19-16l-13 13H52v-16h-4c6 23-42 55-15 68zm64-11c24 14 32 29 44 44 11 0 13-20 3-27-8-5-22-13-44-21zm-19 46c26 15 34 30 48 44 12 0 13-19 3-26-9-6-24-13-48-21zM34 54C105 37 159 9 187-51c20 51 58 78 103 97 9-9 21-14 37-14l1-3C262 16 221-5 193-53h117c12 0 13-9 3-12-10-6-17-13-23-20l-19 22h-80c10-21 2-87 14-108-6-4-20-4-29-9 9 11 4 101-4 117H33l5 10h130C137 9 107 23 33 51" id="I"/><use transform="matrix(0.06172839506172839,0,0,0.06172839506172839,0,0)" xlink:href="#I" id="l"/><path d="M81-160c1-5 9-14-2-14 10-17 21-37 31-60 3-5 19-7 5-13-6-3-13-8-20-15-16 65-43 113-77 158l3 3c15-13 29-30 44-50l2 205c5-2 14-2 14-8v-206zm118 7C182-42 160-24 96 47l1 2c76-59 94-82 120-196 5-2 16-9 5-13-4-3-8-7-12-14-7 13-29 11-50 11 5-16 10-36 15-58h57c9 1 10-8 2-10-8-5-14-10-18-16l-16 17h-86c3 14 27 8 43 9-13 78-27 115-66 157l1 2c16-12 31-26 42-43 17 16 22 34 32 48 4 0 7-4 7-11 0-23-15-28-37-41 8-15 14-26 21-44h42zm65-24c-2-11 16-15 1-20-6 0-14-1-21-4 8 55 1 122 3 182 5 2 15-1 17-7v-151zm53-53c-1-7 16-11 1-14-6-1-13-3-20-6 8 82 3 180 3 268 0 11-26 6-36 4v4c15 4 24 12 27 25 12-1 26-16 25-33v-248" id="J"/><use transform="matrix(0.06172839506172839,0,0,0.06172839506172839,0,0)" xlink:href="#J" id="m"/><path d="M90-239c59 0 76 52 76 120S152 4 89 4C31 4 14-51 14-119c0-67 17-120 76-120zM89-10c45-6 45-58 45-109 0-50 0-101-45-106-45 4-43 57-43 106 0 50-2 104 43 109" id="K"/><use transform="matrix(0.06172839506172839,0,0,0.06172839506172839,0,0)" xlink:href="#K" id="n"/><use transform="matrix(0.06172839506172839,0,0,0.06172839506172839,0,0)" xlink:href="#J" id="o"/><path d="M302-221c-1-9 24-12 7-20-5-3-10-7-15-13l-11 10H71l-21-12c3 18 3 56 3 114C52-35 50-12 18 50l3 1C70-7 70-69 70-186h216c1 5-2 14 2 16 4-2 12-3 14-7v-44zM70-234h216v38H70v-38zM269-65c30 9 8-51 26-54-3-9-14-10-20-19-13 14-48 6-73 8v-23c27 1 55-10 77-3 11-8-14-15-15-24-44 15-99 23-165 25l3 4c29 0 56-1 83-2v23c-31-1-68 5-85-10 10 21-2 59 7 81 7-3 17-3 14-16h64v27c-36-2-84 7-107-9 8 30 2 72 4 108 2 7 15-1 17-4v-85h86V4c-24 2-36 1-60-1 7 4 8 37 19 25 25-14 64-11 106-27 2 13 21 32 22 6-6-17-23-21-43-33 3 10 16 16 19 24-16 2-32 3-46 4v-40h88v58c0 20-16 10-33 11v4c13 5 23 11 26 22 9-2 26-17 23-31v-47c-1-8 18-13 8-20-5-3-10-7-14-13-22 12-66 3-98 6v-27h67v10zM121-85v-36h64v36h-64zm81-36h67v36h-67v-36" id="L"/><use transform="matrix(0.06172839506172839,0,0,0.06172839506172839,0,0)" xlink:href="#L" id="p"/><path d="M85-204c0-19-3-42 7-50-4-7-24-4-29-8 13 92-3 219 6 316 5-4 15-2 16-10v-241c14 16 23 35 30 55 2 3 4 4 7 4 6 0 11-10 10-18-6-21-19-27-47-48zm-40 13c1 21-19 55-27 69 0 8 3 12 9 13 24-10 21-34 23-82h-5zm121 25c8-12 7-37 20-48 5-2 4-6-3-8-6-2-13-6-20-10-5 56-20 94-41 135l2 3c13-14 26-40 38-62h52v79h-68l5 10h63v92h-99l6 10h202c9 0 11-9 2-11-9-5-17-12-22-18l-17 19h-54v-92h69c11 0 10-7 2-11-9-4-15-12-20-18l-17 19h-34v-79h77c7 0 9-8 2-11-8-4-15-9-21-17l-18 18h-40c1-28-4-65 7-81-6-5-20-4-29-9 8 22 2 61 4 90h-48" id="M"/><use transform="matrix(0.06172839506172839,0,0,0.06172839506172839,0,0)" xlink:href="#M" id="q"/><path d="M110-14l48 5v9H32v-9l48-5v-192l-48 17v-10l69-39h9v224" id="N"/><use transform="matrix(0.06172839506172839,0,0,0.06172839506172839,0,0)" xlink:href="#N" id="r"/><path d="M24-231c66-21 156 2 128 81C132-92 78-66 39-27h121V0H16v-26l59-54c26-25 47-47 47-97 0-48-47-57-81-37l-6 29H24v-46" id="O"/><use transform="matrix(0.06172839506172839,0,0,0.06172839506172839,0,0)" xlink:href="#O" id="s"/><path fill="#333" d="M77-16l18 4V0H8v-12l18-4v-133l-17-5v-11h68v149zM51-196c-16 0-27-10-27-27s10-27 27-27 27 11 27 27c0 17-10 27-27 27" id="P"/><path fill="#333" d="M127-114c3-31-26-38-50-25v123l15 4V0H10v-12l16-4v-133l-16-5v-11h64l2 14c31-23 102-32 102 30v105l17 4V0h-82v-12l14-4v-98" id="Q"/><path fill="#333" d="M107-230c-31-13-29 30-29 65h34v18H78v131l27 4V0H10v-12l18-4v-131H3v-12l25-7c-8-66 31-98 95-84v39h-11" id="R"/><g id="t"><use transform="matrix(0.04938271604938272,0,0,0.04938271604938272,0,0)" xlink:href="#P"/><use transform="matrix(0.04938271604938272,0,0,0.04938271604938272,4.938271604938272,0)" xlink:href="#Q"/><use transform="matrix(0.04938271604938272,0,0,0.04938271604938272,14.814814814814817,0)" xlink:href="#R"/></g></defs></g></svg>