<svg xmlns="http://www.w3.org/2000/svg" xmlns:xlink="http://www.w3.org/1999/xlink" xmlns:lucid="lucid" width="602" height="359"><g transform="translate(-339 -559)" lucid:page-tab-id="0_0"><path d="M340 572a12 12 0 0 1 12-12h176a12 12 0 0 1 12 12v53a12 12 0 0 1-12 12H352a12 12 0 0 1-12-12z" fill="#fff"/><path d="M340 600h200v25a12 12 0 0 1-12 12H352a12 12 0 0 1-12-12z" fill="#fff"/><path d="M341 600h198-198zM340 572a12 12 0 0 1 12-12h176a12 12 0 0 1 12 12v53a12 12 0 0 1-12 12H352a12 12 0 0 1-12-12z" stroke="#000" stroke-width="2" fill="none"/><use xlink:href="#a" transform="matrix(1,0,0,1,350,560) translate(65.95679012345678 24.444444444444443)"/><use xlink:href="#b" transform="matrix(1,0,0,1,345,602.5) translate(0 20.444444444444443)"/><path d="M340 732a12 12 0 0 1 12-12h176a12 12 0 0 1 12 12v90a12 12 0 0 1-12 12H352a12 12 0 0 1-12-12z" fill="#fff"/><path d="M340 760h200v38H340z" fill="#fff"/><path d="M340 797h200v25a12 12 0 0 1-12 12H352a12 12 0 0 1-12-12z" fill="#fff"/><path d="M341 760h198-198zM340 732a12 12 0 0 1 12-12h176a12 12 0 0 1 12 12v90a12 12 0 0 1-12 12H352a12 12 0 0 1-12-12z" stroke="#000" stroke-width="2" fill="none"/><use xlink:href="#c" transform="matrix(1,0,0,1,350,720) translate(50.70987654320988 24.444444444444443)"/><use xlink:href="#d" transform="matrix(1,0,0,1,345,762.5) translate(0 20.444444444444443)"/><use xlink:href="#e" transform="matrix(1,0,0,1,345,762.5) translate(67.09876543209877 20.444444444444443)"/><use xlink:href="#d" transform="matrix(1,0,0,1,345,799.5) translate(0 20.444444444444443)"/><use xlink:href="#f" transform="matrix(1,0,0,1,345,799.5) translate(67.09876543209877 20.444444444444443)"/><path d="M740 572a12 12 0 0 1 12-12h176a12 12 0 0 1 12 12v53a12 12 0 0 1-12 12H752a12 12 0 0 1-12-12z" fill="#fff"/><path d="M740 600h200v25a12 12 0 0 1-12 12H752a12 12 0 0 1-12-12z" fill="#fff"/><path d="M741 600h198-198zM740 572a12 12 0 0 1 12-12h176a12 12 0 0 1 12 12v53a12 12 0 0 1-12 12H752a12 12 0 0 1-12-12z" stroke="#000" stroke-width="2" fill="none"/><use xlink:href="#g" transform="matrix(1,0,0,1,750,560) translate(44.75308641975309 24.444444444444443)"/><use xlink:href="#h" transform="matrix(1,0,0,1,750,560) translate(124.1358024691358 24.444444444444443)"/><use xlink:href="#i" transform="matrix(1,0,0,1,745,602.5) translate(0 20.444444444444443)"/><use xlink:href="#e" transform="matrix(1,0,0,1,745,602.5) translate(91.9753086419753 20.444444444444443)"/><path d="M740 712a12 12 0 0 1 12-12h176a12 12 0 0 1 12 12v53a12 12 0 0 1-12 12H752a12 12 0 0 1-12-12z" fill="#fff"/><path d="M740 740h200v25a12 12 0 0 1-12 12H752a12 12 0 0 1-12-12z" fill="#fff"/><path d="M741 740h198-198zM740 712a12 12 0 0 1 12-12h176a12 12 0 0 1 12 12v53a12 12 0 0 1-12 12H752a12 12 0 0 1-12-12z" stroke="#000" stroke-width="2" fill="none"/><use xlink:href="#g" transform="matrix(1,0,0,1,750,700) translate(44.75308641975309 24.444444444444443)"/><use xlink:href="#j" transform="matrix(1,0,0,1,750,700) translate(124.1358024691358 24.444444444444443)"/><use xlink:href="#i" transform="matrix(1,0,0,1,745,742.5) translate(0 20.444444444444443)"/><use xlink:href="#e" transform="matrix(1,0,0,1,745,742.5) translate(91.9753086419753 20.444444444444443)"/><path d="M740 852a12 12 0 0 1 12-12h176a12 12 0 0 1 12 12v53a12 12 0 0 1-12 12H752a12 12 0 0 1-12-12z" fill="#fff"/><path d="M740 880h200v25a12 12 0 0 1-12 12H752a12 12 0 0 1-12-12z" fill="#fff"/><path d="M741 880h198-198zM740 852a12 12 0 0 1 12-12h176a12 12 0 0 1 12 12v53a12 12 0 0 1-12 12H752a12 12 0 0 1-12-12z" stroke="#000" stroke-width="2" fill="none"/><use xlink:href="#g" transform="matrix(1,0,0,1,750,840) translate(44.75308641975309 24.444444444444443)"/><use xlink:href="#k" transform="matrix(1,0,0,1,750,840) translate(124.1358024691358 24.444444444444443)"/><use xlink:href="#i" transform="matrix(1,0,0,1,745,882.5) translate(0 20.444444444444443)"/><use xlink:href="#e" transform="matrix(1,0,0,1,745,882.5) translate(91.9753086419753 20.444444444444443)"/><path d="M440 638.5v66" stroke="#3a414a" fill="none"/><path d="M440.48 638.5h-.96v-.5h.96z" stroke="#3a414a" stroke-width=".05" fill="#3a414a"/><path d="M440 718l-7.5-13h15z" stroke="#3a414a" fill="#3a414a"/><path d="M615.22 679.48H467.35l-.88.06-.84.2-.8.34-.74.45-.67.56-.56.65-.46.74-.32.8-.2.84-.07.88v19.5h-.94v-19.54l.08-1 .23-.98.4-.94.52-.87.65-.78.78-.66.86-.53.93-.4 1-.23 1-.08h147.9zm123.28-99h-33.48l-.88.06-.85.2-.8.34-.75.45-.66.56-.57.65-.45.74-.33.8-.2.84-.07.88v87l-.08 1-.24.98-.4.94-.52.87-.66.78-.77.66-.86.53-.94.4-1 .23-.98.08h-57.1v-.96h57.06l.88-.06.85-.2.8-.34.75-.45.66-.56.57-.65.45-.74.33-.8.2-.84.07-.88v-87l.08-1 .24-.98.4-.94.52-.87.66-.78.77-.66.86-.53.94-.4 1-.23.98-.08h33.52z" stroke="#3a414a" stroke-width=".05" fill="#3a414a"/><path d="M739 580.48h-.5v-.96h.5z" fill="#3a414a"/><path stroke="#3a414a" stroke-width=".05" fill="#3a414a"/><path d="M461.33 718l-7.5-13h15z" fill="#3a414a"/><path d="M461.33 718.95L453 704.53h16.66zm-6.67-13.47l6.67 11.57L468 705.5zM694 678.6l1 .24.94.4.87.52.78.66.66.77.53.86.4.94.23 1 .08.98v29l.06.88.2.85.34.8.45.75.56.66.65.57.74.45.8.33.84.2.88.07h33.48v.96h-33.52l-1-.08-.98-.24-.94-.4-.87-.52-.78-.66-.66-.77-.53-.86-.4-.94-.23-1-.08-.98v-29l-.06-.88-.2-.85-.34-.8-.45-.75-.56-.66-.65-.57-.74-.45-.8-.33-.84-.2-.88-.07H635.9v-.96h57.12zm-78.78.88H467.35l-.88.06-.84.2-.8.34-.74.45-.67.56-.56.65-.46.74-.32.8-.2.84-.07.88v19.5h-.94v-19.54l.08-1 .23-.98.4-.94.52-.87.65-.78.78-.66.86-.53.93-.4 1-.23 1-.08h147.9z" stroke="#3a414a" stroke-width=".05" fill="#3a414a"/><path d="M739 720.48h-.5v-.96h.5z" fill="#3a414a"/><path stroke="#3a414a" stroke-width=".05" fill="#3a414a"/><path d="M461.33 718l-7.5-13h15z" fill="#3a414a"/><path d="M461.33 718.95L453 704.53h16.66zm-6.67-13.47l6.67 11.57L468 705.5zM694 678.6l1 .24.94.4.87.52.78.66.66.77.53.86.4.94.23 1 .08.98v169l.06.88.2.85.34.8.45.75.56.66.65.57.74.45.8.33.84.2.88.07h33.48v.96h-33.52l-1-.08-.98-.24-.94-.4-.87-.52-.78-.66-.66-.77-.53-.86-.4-.94-.23-1-.08-.98v-169l-.06-.88-.2-.85-.34-.8-.45-.75-.56-.66-.65-.57-.74-.45-.8-.33-.84-.2-.88-.07H635.9v-.96h57.12zm-78.78.88H467.35l-.88.06-.84.2-.8.34-.74.45-.67.56-.56.65-.46.74-.32.8-.2.84-.07.88v19.5h-.94v-19.54l.08-1 .23-.98.4-.94.52-.87.65-.78.78-.66.86-.53.93-.4 1-.23 1-.08h147.9z" stroke="#3a414a" stroke-width=".05" fill="#3a414a"/><path d="M739 860.48h-.5v-.96h.5z" fill="#3a414a"/><path stroke="#3a414a" stroke-width=".05" fill="#3a414a"/><path d="M461.33 718l-7.5-13h15z" fill="#3a414a"/><path d="M461.33 718.95L453 704.53h16.66zm-6.67-13.47l6.67 11.57L468 705.5z" stroke="#3a414a" stroke-width=".05" fill="#3a414a"/><g><use xlink:href="#l" transform="matrix(1,0,0,1,615.2197362322506,668.3333333333334) translate(0 14.222222222222223)"/></g><defs><path d="M52-115c0 93 80 130 150 87l7-35h11l-1 55c-23 7-52 12-83 12C60 4 19-37 15-115c-5-113 97-141 201-114l1 51h-12l-5-30c-15-9-39-16-62-16-66 0-86 41-86 109" id="m"/><path d="M65-12l28 4v8H7v-8l28-4v-226l-28-4v-8h58v238" id="n"/><path d="M32-163c41-10 102-14 102 39v112c8 3 24-2 21 12h-45l-4-17C83 13 3 13 13-46c-2-50 45-50 92-51 4-36-5-70-42-56-6 2-12 4-16 6-4 7 0 23-15 20v-36zM42-47c0 41 41 33 63 22v-59c-34 1-63-1-63 37" id="o"/><path d="M41-130c7 48 86 23 86 84 0 56-69 57-112 41v-40c20 0 9 29 31 31 35 19 77-26 41-50-27-18-72-13-72-59 0-50 58-52 100-41v36c-19 1-8-25-28-25-21-7-50-1-46 23" id="p"/><g id="a"><use transform="matrix(0.06172839506172839,0,0,0.06172839506172839,0,0)" xlink:href="#m"/><use transform="matrix(0.06172839506172839,0,0,0.06172839506172839,14.814814814814813,0)" xlink:href="#n"/><use transform="matrix(0.06172839506172839,0,0,0.06172839506172839,20.98765432098765,0)" xlink:href="#o"/><use transform="matrix(0.06172839506172839,0,0,0.06172839506172839,30.80246913580247,0)" xlink:href="#p"/><use transform="matrix(0.06172839506172839,0,0,0.06172839506172839,39.44444444444444,0)" xlink:href="#p"/></g><path d="M169-68c0 44-28 66-70 71v24H85V4C60 2 34-2 15-9v-56h12c0 36 21 53 58 54v-99c-32-13-67-22-66-68 1-41 29-55 66-60v-23h14v23c17 0 41 3 54 7v49h-11c-1-27-16-41-43-42v84c36 12 70 25 70 72zM99-12c45 1 53-71 16-86-5-3-10-5-16-7v93zM85-223c-41 0-49 57-15 71 4 2 10 5 15 7v-78" id="q"/><path d="M47-200c-23 0-25-39 0-38 13 0 18 7 20 19-1 11-8 19-20 19zM65-12l28 4v8H8v-8l28-4v-141l-24-4v-8h53v153" id="r"/><path d="M125-118c4-37-41-34-68-26v132l23 4v8H8C5-13 21-9 28-12v-141c-7-3-23 1-20-12h47l2 13c31-23 98-29 98 31v109c7 3 23-1 20 12h-72v-8l22-4v-106" id="s"/><path d="M103-236c-39-15-35 32-34 71h44v15H69v136l35 6v8H15v-8l25-6v-136H11v-9l29-7c-6-59 23-100 80-84v36c-15 2-12-14-17-22" id="t"/><g id="b"><use transform="matrix(0.06172839506172839,0,0,0.06172839506172839,0,0)" xlink:href="#q"/><use transform="matrix(0.06172839506172839,0,0,0.06172839506172839,11.11111111111111,0)" xlink:href="#r"/><use transform="matrix(0.06172839506172839,0,0,0.06172839506172839,17.28395061728395,0)" xlink:href="#s"/><use transform="matrix(0.06172839506172839,0,0,0.06172839506172839,28.39506172839506,0)" xlink:href="#t"/></g><path d="M77-14l30 5v9H13v-9l30-5v-208l-30-4v-10h94v10l-30 4v208" id="u"/><path d="M54-38c-1 25 24 26 44 20v12C71 10 25 9 25-35v-115H4c-2-14 14-10 21-15l18-38h11v38h38v15H54v112" id="v"/><path d="M84-170c49 0 66 33 63 87H46c-8 60 38 80 95 63v10C128-2 108 4 88 4 34 4 14-29 14-84c-1-54 22-86 70-86zm33 73c12-57-57-82-69-24-1 7-2 15-2 24h71" id="w"/><path d="M57-145c16-10 35-24 60-25v45c-19 1-8-30-40-17l-20 6v124l29 4v8H7v-8l21-4v-141c-8-3-24 2-21-12h48" id="x"/><path d="M45-84c0 64 52 80 104 63 1 25-30 25-55 25-56 0-80-32-80-88 0-76 62-98 131-80v46h-10c-5-15-4-31-23-35-47-10-67 21-67 69" id="y"/><g id="c"><use transform="matrix(0.06172839506172839,0,0,0.06172839506172839,0,0)" xlink:href="#u"/><use transform="matrix(0.06172839506172839,0,0,0.06172839506172839,7.345679012345679,0)" xlink:href="#s"/><use transform="matrix(0.06172839506172839,0,0,0.06172839506172839,18.45679012345679,0)" xlink:href="#v"/><use transform="matrix(0.06172839506172839,0,0,0.06172839506172839,24.62962962962963,0)" xlink:href="#w"/><use transform="matrix(0.06172839506172839,0,0,0.06172839506172839,34.44444444444444,0)" xlink:href="#x"/><use transform="matrix(0.06172839506172839,0,0,0.06172839506172839,41.79012345679012,0)" xlink:href="#t"/><use transform="matrix(0.06172839506172839,0,0,0.06172839506172839,49.1358024691358,0)" xlink:href="#o"/><use transform="matrix(0.06172839506172839,0,0,0.06172839506172839,58.95061728395061,0)" xlink:href="#y"/><use transform="matrix(0.06172839506172839,0,0,0.06172839506172839,68.76543209876543,0)" xlink:href="#w"/></g><path d="M178-68c0 79-95 82-154 59v-54h12c1 35 22 52 60 52 50 0 69-58 33-82-39-24-105-21-105-85 0-67 86-66 142-53v49h-12l-6-29c-31-27-121-7-89 42 28 43 119 24 119 101" id="z"/><path d="M126-119c3-38-42-31-69-25v132l23 4v8H7v-8l21-4v-226l-24-4v-8h53l-1 98c31-22 99-31 99 31v109c7 3 23-1 20 12h-71v-8l22-4v-107" id="A"/><path d="M13-81c0-71 46-101 114-85l-1-72-28-4v-8h57v238c8 3 24-2 21 12h-47l-2-12C80 23 13-1 13-81zm77-74c-37 1-44 33-45 74 0 38 9 66 45 66 14 0 27-3 36-7v-130c-10-1-24-3-36-3" id="B"/><g id="d"><use transform="matrix(0.06172839506172839,0,0,0.06172839506172839,0,0)" xlink:href="#z"/><use transform="matrix(0.06172839506172839,0,0,0.06172839506172839,12.345679012345679,0)" xlink:href="#A"/><use transform="matrix(0.06172839506172839,0,0,0.06172839506172839,23.45679012345679,0)" xlink:href="#o"/><use transform="matrix(0.06172839506172839,0,0,0.06172839506172839,33.27160493827161,0)" xlink:href="#x"/><use transform="matrix(0.06172839506172839,0,0,0.06172839506172839,40.617283950617285,0)" xlink:href="#w"/><use transform="matrix(0.06172839506172839,0,0,0.06172839506172839,50.4320987654321,0)" xlink:href="#B"/></g><path d="M75-108c48 3 76-12 76-58s-28-57-76-54v112zm111-58c-1 60-46 78-111 74v78l37 5v9H13v-9l28-5v-208l-31-4v-10c81 1 178-14 176 70" id="C"/><path d="M90-170c52 0 76 32 76 87 0 54-24 87-77 87-51 0-75-34-75-87 0-54 24-87 76-87zM89-10c39 0 46-35 46-73 0-39-7-73-46-73-39 1-44 34-44 73s6 72 44 73" id="D"/><path d="M166-85c3 67-44 102-111 85l1 64 29 4v9H6v-9l21-4v-217c-7-3-22 1-19-12h46l1 9c11-8 26-14 45-14 47 2 64 36 66 85zM56-13c53 14 83-14 78-72 7-53-33-79-78-60v132" id="E"/><g id="e"><use transform="matrix(0.06172839506172839,0,0,0.06172839506172839,0,0)" xlink:href="#C"/><use transform="matrix(0.06172839506172839,0,0,0.06172839506172839,12.345679012345679,0)" xlink:href="#x"/><use transform="matrix(0.06172839506172839,0,0,0.06172839506172839,19.691358024691358,0)" xlink:href="#D"/><use transform="matrix(0.06172839506172839,0,0,0.06172839506172839,30.80246913580247,0)" xlink:href="#E"/><use transform="matrix(0.06172839506172839,0,0,0.06172839506172839,41.91358024691358,0)" xlink:href="#w"/><use transform="matrix(0.06172839506172839,0,0,0.06172839506172839,51.7283950617284,0)" xlink:href="#x"/><use transform="matrix(0.06172839506172839,0,0,0.06172839506172839,59.074074074074076,0)" xlink:href="#v"/><use transform="matrix(0.06172839506172839,0,0,0.06172839506172839,65.24691358024691,0)" xlink:href="#r"/><use transform="matrix(0.06172839506172839,0,0,0.06172839506172839,71.41975308641975,0)" xlink:href="#w"/><use transform="matrix(0.06172839506172839,0,0,0.06172839506172839,81.23456790123456,0)" xlink:href="#p"/></g><path d="M81-9v9H4v-9l26-5 81-224h33l83 224 30 5v9h-99v-9l31-5-23-68H73L49-14zm38-203L78-98h82" id="F"/><g id="f"><use transform="matrix(0.06172839506172839,0,0,0.06172839506172839,0,0)" xlink:href="#F"/><use transform="matrix(0.06172839506172839,0,0,0.06172839506172839,15.987654320987653,0)" xlink:href="#y"/><use transform="matrix(0.06172839506172839,0,0,0.06172839506172839,25.80246913580247,0)" xlink:href="#y"/><use transform="matrix(0.06172839506172839,0,0,0.06172839506172839,35.617283950617285,0)" xlink:href="#w"/><use transform="matrix(0.06172839506172839,0,0,0.06172839506172839,45.4320987654321,0)" xlink:href="#p"/><use transform="matrix(0.06172839506172839,0,0,0.06172839506172839,54.074074074074076,0)" xlink:href="#p"/><use transform="matrix(0.06172839506172839,0,0,0.06172839506172839,62.71604938271605,0)" xlink:href="#D"/><use transform="matrix(0.06172839506172839,0,0,0.06172839506172839,73.82716049382717,0)" xlink:href="#x"/><use transform="matrix(0.06172839506172839,0,0,0.06172839506172839,81.17283950617285,0)" xlink:href="#p"/></g><g id="g"><use transform="matrix(0.06172839506172839,0,0,0.06172839506172839,0,0)" xlink:href="#u"/><use transform="matrix(0.06172839506172839,0,0,0.06172839506172839,7.345679012345679,0)" xlink:href="#s"/><use transform="matrix(0.06172839506172839,0,0,0.06172839506172839,18.45679012345679,0)" xlink:href="#p"/><use transform="matrix(0.06172839506172839,0,0,0.06172839506172839,27.098765432098766,0)" xlink:href="#v"/><use transform="matrix(0.06172839506172839,0,0,0.06172839506172839,33.27160493827161,0)" xlink:href="#o"/><use transform="matrix(0.06172839506172839,0,0,0.06172839506172839,43.086419753086425,0)" xlink:href="#s"/><use transform="matrix(0.06172839506172839,0,0,0.06172839506172839,54.19753086419753,0)" xlink:href="#y"/><use transform="matrix(0.06172839506172839,0,0,0.06172839506172839,64.01234567901234,0)" xlink:href="#w"/></g><path d="M90-239c59 0 76 52 76 120S152 4 89 4C31 4 14-51 14-119c0-67 17-120 76-120zM89-10c45-6 45-58 45-109 0-50 0-101-45-106-45 4-43 57-43 106 0 50-2 104 43 109" id="G"/><use transform="matrix(0.06172839506172839,0,0,0.06172839506172839,0,0)" xlink:href="#G" id="h"/><path d="M15-236h35l-11 85H26" id="H"/><g id="i"><use transform="matrix(0.06172839506172839,0,0,0.06172839506172839,0,0)" xlink:href="#u"/><use transform="matrix(0.06172839506172839,0,0,0.06172839506172839,7.345679012345679,0)" xlink:href="#s"/><use transform="matrix(0.06172839506172839,0,0,0.06172839506172839,18.45679012345679,0)" xlink:href="#p"/><use transform="matrix(0.06172839506172839,0,0,0.06172839506172839,27.098765432098766,0)" xlink:href="#v"/><use transform="matrix(0.06172839506172839,0,0,0.06172839506172839,33.27160493827161,0)" xlink:href="#o"/><use transform="matrix(0.06172839506172839,0,0,0.06172839506172839,43.086419753086425,0)" xlink:href="#s"/><use transform="matrix(0.06172839506172839,0,0,0.06172839506172839,54.19753086419753,0)" xlink:href="#y"/><use transform="matrix(0.06172839506172839,0,0,0.06172839506172839,64.01234567901234,0)" xlink:href="#w"/><use transform="matrix(0.06172839506172839,0,0,0.06172839506172839,73.82716049382715,0)" xlink:href="#H"/><use transform="matrix(0.06172839506172839,0,0,0.06172839506172839,77.77777777777777,0)" xlink:href="#p"/></g><path d="M110-14l48 5v9H32v-9l48-5v-192l-48 17v-10l69-39h9v224" id="I"/><use transform="matrix(0.06172839506172839,0,0,0.06172839506172839,0,0)" xlink:href="#I" id="j"/><path d="M24-231c66-21 156 2 128 81C132-92 78-66 39-27h121V0H16v-26l59-54c26-25 47-47 47-97 0-48-47-57-81-37l-6 29H24v-46" id="J"/><use transform="matrix(0.06172839506172839,0,0,0.06172839506172839,0,0)" xlink:href="#J" id="k"/><path fill="#333" d="M77-16l18 4V0H8v-12l18-4v-133l-17-5v-11h68v149zM51-196c-16 0-27-10-27-27s10-27 27-27 27 11 27 27c0 17-10 27-27 27" id="K"/><path fill="#333" d="M127-114c3-31-26-38-50-25v123l15 4V0H10v-12l16-4v-133l-16-5v-11h64l2 14c31-23 102-32 102 30v105l17 4V0h-82v-12l14-4v-98" id="L"/><path fill="#333" d="M107-230c-31-13-29 30-29 65h34v18H78v131l27 4V0H10v-12l18-4v-131H3v-12l25-7c-8-66 31-98 95-84v39h-11" id="M"/><g id="l"><use transform="matrix(0.04938271604938272,0,0,0.04938271604938272,0,0)" xlink:href="#K"/><use transform="matrix(0.04938271604938272,0,0,0.04938271604938272,4.938271604938272,0)" xlink:href="#L"/><use transform="matrix(0.04938271604938272,0,0,0.04938271604938272,14.814814814814817,0)" xlink:href="#M"/></g></defs></g></svg>